# xmcd
#
# Track frame offsets: 
#        150
#        17941
#        37363
#        53490
#        76620
#        105787
#        127895
#        153145
#        173485
#        192535
#        214849
#        234129
#        261393
#        282036
#        303476
#        326138
#
# Disc length: 4791 seconds
#
# Revision: 0
# Processed by: cddbd v1.5.2PL0 Copyright (c) Steve Scherf et al.
# Submitted via: ExactAudioCopy v0.95a5
#
DISCID=cb12b510
DTITLE=Various Artist - Akella Presents - Modern Electric Blues - vol.14  CD1
DYEAR=2010
DGENRE=Blues
TTITLE0=Workin' Man Blues - ALBERT CUMMINGS
TTITLE1=Sweet as a flower - WALTER TROUT
TTITLE2=You Upset Me Baby - JOE BONAMASSA
TTITLE3=Jake's Mojo - ROB ORLEMANS
TTITLE4=Under The Influence - BILLY PRICE and FRED CHAPELLIER
TTITLE5=Rain Fall Down - ROLLING STONES
TTITLE6=Your Turn To Pay - AL BASILE
TTITLE7=Old Uncletom Is Gone - RAS SMAILA
TTITLE8=Out Of My Mind - BLUES COMPANY
TTITLE9=I Want to Be with You - TONY JOE WHITE
TTITLE10=Hoochie coochie man - SY KLOPPS BLUES BAND
TTITLE11=I'll Play the Blues for You - GARY MOORE
TTITLE12=Say hey (dedicated to Albert Collins) - AMAR SUNDY
TTITLE13=Lay My Demons Down - TOMMY McCOY and LUCKY PETERSON
TTITLE14=All My Tears Went By - TOSCHO
TTITLE15=Bottle Of Whiskey - BERNARD ALLISON
EXTD=
EXTT0=
EXTT1=
EXTT2=
EXTT3=
EXTT4=
EXTT5=
EXTT6=
EXTT7=
EXTT8=
EXTT9=
EXTT10=
EXTT11=
EXTT12=
EXTT13=
EXTT14=
EXTT15=
PLAYORDER=
